<?xml version="1.0" standalone="no"?>
<!DOCTYPE svg PUBLIC "-//W3C//DTD SVG 20010904//EN"
 "http://www.w3.org/TR/2001/REC-SVG-20010904/DTD/svg10.dtd">
<svg version="1.0" xmlns="http://www.w3.org/2000/svg"
 width="880.000000pt" height="471.000000pt" viewBox="0 0 880.000000 471.000000"
 preserveAspectRatio="xMidYMid meet">
<metadata>
Created by potrace 1.16, written by Peter Selinger 2001-2019
</metadata>
<g transform="translate(0.000000,471.000000) scale(0.100000,-0.100000)"
fill="#000000" stroke="none">
<path d="M2680 4285 c-36 -8 -107 -35 -159 -61 -158 -78 -281 -221 -334 -389
-32 -100 -32 -299 0 -400 62 -197 220 -357 422 -429 79 -28 97 -30 211 -30
109 0 136 4 207 27 163 54 310 181 384 332 52 108 69 179 69 300 0 121 -17
192 -69 300 -104 212 -324 352 -566 361 -64 2 -123 -1 -165 -11z"/>
<path d="M5840 4285 c-36 -8 -107 -35 -159 -61 -155 -76 -267 -204 -329 -376
-24 -66 -27 -86 -27 -213 0 -127 3 -147 27 -213 38 -106 83 -176 164 -258 129
-130 315 -201 499 -191 292 17 538 219 610 502 20 78 20 242 0 320 -56 218
-224 399 -435 469 -105 35 -250 44 -350 21z"/>
<path d="M4239 3675 c-302 -60 -548 -295 -630 -600 -28 -106 -31 -279 -5 -385
24 -101 103 -261 167 -338 69 -83 172 -163 273 -212 130 -63 189 -75 361 -75
129 0 160 3 225 23 277 87 487 303 561 578 29 105 31 297 5 399 -81 315 -330
551 -644 611 -90 17 -224 17 -313 -1z"/>
<path d="M3442 3058 c-19 -5 -66 -34 -105 -64 -155 -119 -319 -174 -517 -174
-214 0 -383 63 -558 206 -69 57 -226 40 -338 -37 -99 -68 -178 -196 -244 -398
-53 -162 -73 -303 -68 -499 3 -136 6 -163 25 -205 30 -64 116 -148 191 -186
120 -60 145 -63 617 -68 l430 -5 49 124 c57 145 115 246 197 346 75 90 132
133 231 172 84 33 143 39 227 26 l54 -8 -35 48 c-114 156 -173 381 -148 565 6
46 16 99 21 117 14 44 10 50 -29 40z"/>
<path d="M5320 3065 c0 -2 7 -34 17 -72 25 -102 22 -276 -6 -381 -24 -92 -74
-200 -128 -276 l-34 -48 53 8 c83 13 142 7 226 -26 95 -37 155 -81 223 -162
87 -104 145 -204 201 -346 l53 -134 430 5 c467 5 497 8 613 65 78 38 156 112
189 180 28 57 28 58 28 262 0 225 -11 295 -67 465 -63 187 -154 330 -248 390
-72 45 -154 68 -229 63 -66 -5 -72 -8 -142 -62 -233 -183 -541 -228 -824 -122
-79 30 -174 86 -227 134 -31 28 -128 71 -128 57z"/>
<path d="M3450 2151 c-212 -67 -341 -225 -448 -546 -71 -211 -86 -315 -87
-580 0 -288 6 -309 124 -425 86 -85 162 -128 286 -162 80 -22 85 -22 1005 -26
650 -2 955 0 1025 8 193 22 318 80 427 198 88 96 101 140 106 351 7 311 -35
532 -150 794 -94 216 -199 324 -371 382 -136 45 -218 32 -327 -56 -92 -73
-267 -162 -375 -190 -164 -41 -367 -41 -530 1 -110 28 -284 116 -375 189 -103
83 -191 101 -310 62z"/>
</g>
</svg>
